<?xml version="1.0" encoding="UTF-8" standalone="no"?>
<svg
   xmlns:dc="http://purl.org/dc/elements/1.1/"
   xmlns:cc="http://web.resource.org/cc/"
   xmlns:rdf="http://www.w3.org/1999/02/22-rdf-syntax-ns#"
   xmlns:svg="http://www.w3.org/2000/svg"
   xmlns="http://www.w3.org/2000/svg"
   xmlns:sodipodi="http://sodipodi.sourceforge.net/DTD/sodipodi-0.dtd"
   xmlns:inkscape="http://www.inkscape.org/namespaces/inkscape"
   style="stroke:black; fill:none; stroke-width:0.5pt; stroke-linejoin:round; text-anchor:middle"
   height="178.27943"
   width="344.49573"
   version="1.0"
   font-family="Helvetica,Arial,FreeSans,Sans,sans,sans-serif"
   viewBox="0 0 100 35"
   id="svg2"
   sodipodi:version="0.32"
   inkscape:version="0.45.1"
   sodipodi:docname="statsyst.svg"
   inkscape:output_extension="org.inkscape.output.svg.inkscape"
   sodipodi:docbase="/home/dapper/work/hepr8.physics.tamu.edu/talks/2008-01-24_dpg_alignment_progress"
   inkscape:export-filename="/home/dapper/work/hepr8.physics.tamu.edu/talks/2008-01-24_dpg_alignment_progress/statsyst.png"
   inkscape:export-xdpi="200"
   inkscape:export-ydpi="200">
  <metadata
     id="metadata69">
    <rdf:RDF>
      <cc:Work
         rdf:about="">
        <dc:format>image/svg+xml</dc:format>
        <dc:type
           rdf:resource="http://purl.org/dc/dcmitype/StillImage" />
      </cc:Work>
    </rdf:RDF>
  </metadata>
  <defs
     id="defs67" />
  <sodipodi:namedview
     inkscape:window-height="724"
     inkscape:window-width="1018"
     inkscape:pageshadow="2"
     inkscape:pageopacity="0.0"
     guidetolerance="10.0"
     gridtolerance="10.0"
     objecttolerance="10.0"
     borderopacity="1.0"
     bordercolor="#666666"
     pagecolor="#ffffff"
     id="base"
     inkscape:zoom="1.3364318"
     inkscape:cx="207.72449"
     inkscape:cy="105.50169"
     inkscape:window-x="0"
     inkscape:window-y="0"
     inkscape:current-layer="svg2" />
  <path
     d="M 17.483825,-3.0461614 L 92.483825,-3.0461614"
     id="path16"
     style="stroke-width:0.25pt" />
  <g
     id="g18"
     transform="translate(-2.5161746,-8.0461614)">
    <path
       style="stroke-width:0.25pt"
       id="path20"
       d="M 95,38.8333 L 94.25,38.8333 M 95,37.6667 L 94.25,37.6667 M 95,36.5 L 94.25,36.5 M 95,35.3333 L 94.25,35.3333 M 95,34.1667 L 94.25,34.1667 M 95,33 L 94.25,33 M 95,31.8333 L 94.25,31.8333 M 95,30.6667 L 94.25,30.6667 M 95,29.5 L 94.25,29.5 M 95,27.1667 L 94.25,27.1667 M 95,26 L 94.25,26 M 95,24.8333 L 94.25,24.8333 M 95,23.6667 L 94.25,23.6667 M 95,22.5 L 94.25,22.5 M 95,21.3333 L 94.25,21.3333 M 95,20.1667 L 94.25,20.1667 M 95,19 L 94.25,19 M 95,17.8333 L 94.25,17.8333 M 95,15.5 L 94.25,15.5 M 95,14.3333 L 94.25,14.3333 M 95,13.1667 L 94.25,13.1667 M 95,12 L 94.25,12 M 95,10.8333 L 94.25,10.8333 M 95,9.66667 L 94.25,9.66667 M 95,8.5 L 94.25,8.5 M 95,7.33333 L 94.25,7.33333 M 95,6.16667 L 94.25,6.16667" />
    <path
       style="stroke-width:0.25pt"
       id="path22"
       d="M 95,40 L 93.5,40 M 95,28.3333 L 93.5,28.3333 M 95,16.6667 L 93.5,16.6667 M 95,5 L 93.5,5" />
    <text
       style="font-size:5px;text-anchor:start;fill:#000000;stroke:none"
       id="text24"
       dominant-baseline="middle"
       transform="translate(97,40)"
       font-size="5" />
    <text
       style="font-size:5px;text-anchor:start;fill:#000000;stroke:none"
       id="text26"
       dominant-baseline="middle"
       transform="translate(97,28.3333)"
       font-size="5" />
    <text
       style="font-size:5px;text-anchor:start;fill:#000000;stroke:none"
       id="text28"
       dominant-baseline="middle"
       transform="translate(97,16.6667)"
       font-size="5" />
    <text
       style="font-size:5px;text-anchor:start;fill:#000000;stroke:none"
       id="text30"
       dominant-baseline="middle"
       transform="translate(97,5)"
       font-size="5" />
    <path
       style="stroke-width:0.25pt"
       id="path32"
       d="M 95,40 L 95,5" />
  </g>
  <path
     d=""
     id="path36"
     style="stroke-width:0.25pt" />
  <text
     font-size="5"
     dominant-baseline="text-before-edge"
     id="text40"
     style="font-size:5px;fill:#000000;stroke:none"
     x="32.198128"
     y="38.453838">tuned APEs</text>
  <text
     font-size="5"
     dominant-baseline="text-before-edge"
     id="text42"
     style="font-size:5px;fill:#000000;stroke:none"
     x="77.269524"
     y="38.453838">infinite APEs</text>
  <path
     d="M 17.483825,31.953839 L 92.483825,31.953839"
     id="path44"
     style="stroke-width:0.25pt" />
  <path
     d="M 18.233825,30.787139 L 17.483825,30.787139 M 18.233825,29.620539 L 17.483825,29.620539 M 18.233825,28.453839 L 17.483825,28.453839 M 18.233825,27.287139 L 17.483825,27.287139 M 18.233825,26.120539 L 17.483825,26.120539 M 18.233825,24.953839 L 17.483825,24.953839 M 18.233825,23.787139 L 17.483825,23.787139 M 18.233825,22.620539 L 17.483825,22.620539 M 18.233825,21.453839 L 17.483825,21.453839 M 18.233825,19.120539 L 17.483825,19.120539 M 18.233825,17.953839 L 17.483825,17.953839 M 18.233825,16.787139 L 17.483825,16.787139 M 18.233825,15.620539 L 17.483825,15.620539 M 18.233825,14.453839 L 17.483825,14.453839 M 18.233825,13.287139 L 17.483825,13.287139 M 18.233825,12.120539 L 17.483825,12.120539 M 18.233825,10.953839 L 17.483825,10.953839 M 18.233825,9.7871386 L 17.483825,9.7871386 M 18.233825,7.4538386 L 17.483825,7.4538386 M 18.233825,6.2871386 L 17.483825,6.2871386 M 18.233825,5.1205386 L 17.483825,5.1205386 M 18.233825,3.9538386 L 17.483825,3.9538386 M 18.233825,2.7871386 L 17.483825,2.7871386 M 18.233825,1.6205086 L 17.483825,1.6205086 M 18.233825,0.45383863 L 17.483825,0.45383863 M 18.233825,-0.71283137 L 17.483825,-0.71283137 M 18.233825,-1.8794914 L 17.483825,-1.8794914"
     id="path48"
     style="stroke-width:0.25pt" />
  <path
     d="M 18.983825,31.953839 L 17.483825,31.953839 M 18.983825,20.287139 L 17.483825,20.287139 M 18.983825,8.6205386 L 17.483825,8.6205386 M 18.983825,-3.0461614 L 17.483825,-3.0461614"
     id="path50"
     style="stroke-width:0.25pt" />
  <text
     font-size="5"
     dominant-baseline="middle"
     id="text52"
     style="font-size:5px;text-anchor:end;fill:#000000;stroke:none"
     x="15.983826"
     y="33.453838">0</text>
  <text
     font-size="5"
     dominant-baseline="middle"
     id="text54"
     style="font-size:5px;text-anchor:end;fill:#000000;stroke:none"
     x="15.983826"
     y="21.787138">1</text>
  <text
     font-size="5"
     dominant-baseline="middle"
     id="text56"
     style="font-size:5px;text-anchor:end;fill:#000000;stroke:none"
     x="15.983826"
     y="10.120539">2</text>
  <text
     font-size="5"
     dominant-baseline="middle"
     id="text58"
     style="font-size:5px;text-anchor:end;fill:#000000;stroke:none"
     x="15.983826"
     y="-1.5461615">3</text>
  <path
     d="M 17.483825,31.953839 L 17.483825,-3.0461614"
     id="path60"
     style="stroke-width:0.25pt" />
  <path
     id="path62"
     d="M 28.198125,29.620539 L 81.769525,12.703839"
     style="stroke:#003380;stroke-width:0.625;stroke-linecap:round" />
  <path
     id="path64"
     d="M 28.198125,12.120539 L 81.769525,5.5871386"
     style="stroke:#800000;stroke-width:0.625;stroke-linecap:round" />
  <text
     y="10.161143"
     x="-14.34188"
     style="font-size:5px;fill:#000000;stroke:none"
     id="text2261"
     dominant-baseline="text-before-edge"
     font-size="5"
     transform="matrix(0,-1,1,0,0,0)">ME1/3 error in mm</text>
  <text
     font-size="5"
     dominant-baseline="text-before-edge"
     id="text2270"
     style="font-size:5px;fill:#800000;stroke:none"
     x="48.912868"
     y="12.11114"
     transform="matrix(0.9963574,-8.5275142e-2,8.5275142e-2,0.9963574,0,0)">systematic</text>
  <g
     id="g2276"
     transform="matrix(0.9562968,-0.2923979,0.2923979,0.9562968,-17.305802,-18.28494)"
     style="fill:#003380">
    <text
       y="57.40184"
       x="55.792606"
       style="font-size:5px;text-anchor:middle;fill:#003380;stroke:none;stroke-width:0.5pt;stroke-linejoin:round"
       id="text2272"
       dominant-baseline="text-before-edge"
       font-size="5">statistical at 100 pb</text>
    <text
       font-size="5"
       dominant-baseline="text-before-edge"
       id="text2274"
       style="font-size:3.54181314px;text-anchor:middle;fill:#003380;stroke:none;stroke-width:0.5pt;stroke-linejoin:round"
       x="78.842606"
       y="55.016132">-1</text>
  </g>
</svg>
